<?xml version="1.0" standalone="no"?>
<!DOCTYPE svg PUBLIC "-//W3C//DTD SVG 20010904//EN"
 "http://www.w3.org/TR/2001/REC-SVG-20010904/DTD/svg10.dtd">
<svg version="1.0" xmlns="http://www.w3.org/2000/svg"
 width="118.000000pt" height="118.000000pt" viewBox="0 0 118.000000 118.000000"
 preserveAspectRatio="xMidYMid meet">
<metadata>
Created by potrace 1.11, written by Peter Selinger 2001-2013
</metadata>
<g transform="translate(0.000000,118.000000) scale(0.100000,-0.100000)"
fill="#000000" stroke="none">
<path d="M536 1163 c-3 -3 -6 -18 -6 -32 -1 -40 -34 -104 -69 -134 -17 -14
-62 -42 -100 -62 -79 -41 -177 -135 -215 -204 -105 -195 -54 -422 129 -568
160 -127 398 -141 565 -32 59 38 105 77 100 83 -3 2 -30 -2 -60 -10 -65 -18
-162 -13 -232 11 -171 60 -251 293 -164 480 59 127 186 197 341 188 68 -4 69
-7 -36 74 -42 32 -111 91 -153 130 -86 81 -91 85 -100 76z"/>
<path d="M745 740 c-145 -30 -196 -241 -86 -351 125 -125 311 -38 311 146 0
81 -38 157 -94 187 -29 16 -95 25 -131 18z"/>
</g>
</svg>
